<svg width="40" height="40" viewBox="0 0 40 40" fill="none" xmlns="http://www.w3.org/2000/svg">
<path d="M19.9999 3.33325C10.7952 3.33325 3.33325 10.7952 3.33325 19.9999C3.33325 29.2046 10.7952 36.6666 19.9999 36.6666C29.2046 36.6666 36.6666 29.2046 36.6666 19.9999C36.6666 10.7952 29.2046 3.33325 19.9999 3.33325Z" stroke="#323A3A" stroke-width="1.2" stroke-linecap="round" stroke-linejoin="round"/>
<path d="M7.11841 30.5761C7.11841 30.5761 10.8334 25.8333 20.0001 25.8333C29.1667 25.8333 32.8819 30.5761 32.8819 30.5761" stroke="#323A3A" stroke-width="1.2" stroke-linecap="round" stroke-linejoin="round"/>
<path d="M20 20C22.7615 20 25 17.7615 25 15C25 12.2386 22.7615 10 20 10C17.2385 10 15 12.2386 15 15C15 17.7615 17.2385 20 20 20Z" stroke="#323A3A" stroke-width="1.2" stroke-linecap="round" stroke-linejoin="round"/>
</svg>
